<?xml version="1.0" encoding="iso-8859-1"?><!-- Generator: Adobe Illustrator 16.0.0, SVG Export Plug-In . SVG Version: 6.00 Build 0) --><!DOCTYPE svg PUBLIC "-//W3C//DTD SVG 1.1//EN" "http://www.w3.org/Graphics/SVG/1.1/DTD/svg11.dtd"><svg version="1.1" id="Layer_1" xmlns="http://www.w3.org/2000/svg" xmlns:xlink="http://www.w3.org/1999/xlink" x="0px" y="0px" width="494.707px" height="139.364px" viewBox="2.146 180.818 494.707 139.364" style="enable-background:new 2.146 180.818 494.707 139.364;" xml:space="preserve"><path style="fill:#6BA0AB;" d="M143.491,235.256l0.001-0.006l-3.953,14.007L143.491,235.256L143.491,235.256z"/><path style="fill:#6BA0AB;" d="M163.818,265.664l-4.355-0.025L163.818,265.664z"/><path style="fill:#6BA0AB;" d="M162.698,286.583h0.004l-26.093,0.095L162.698,286.583L162.698,286.583z"/><path style="fill:#6BA0AB;" d="M168.169,265.689l-4.357-0.025L168.169,265.689z"/><path style="fill:#6BA0AB;" d="M164.985,284.805l4.545-17.334l-4.545,17.338V284.805L164.985,284.805z"/><path style="fill:#6BA0AB;" d="M261.055,204.977l-8.466,39.804L261.055,204.977z"/><path style="fill:#6BA0AB;" d="M239.29,204.977l-6.428,29.735l6.428-29.738V204.977z"/><path style="fill:#6BA0AB;" d="M259.605,203.186h-18.106c-1.004,0-2.001,0.806-2.216,1.788l-6.428,29.737l-6.428,29.738	c-0.213,0.982-1.209,1.785-2.213,1.785h-12.815c-12.679,0-11.212-8.771-8.615-20.783c0.026-0.121,0.052-0.239,0.078-0.363	l0.285-1.514c0.017-0.098,0.037-0.196,0.053-0.285l0.579-3.083l0.62-3.305c0.189-0.996,0.475-2.453,0.662-3.368l2.922-14.277	l2.924-14.278c0.202-0.984-0.458-1.793-1.462-1.793H190.86c-1.005,0-2,0.809-2.205,1.791l-3.996,18.958l-3.995,18.956	c-0.004,0.008-0.005,0.021-0.006,0.029l-0.372,1.762c-4.603,21.014-3.382,41.051,21.632,41.678c0.409,0.013,0.726,0.016,0.726,0.016	h39.265c1.004,0,1.999-0.807,2.209-1.791l8.468-39.801l8.467-39.805C261.261,203.992,260.609,203.187,259.605,203.186	L259.605,203.186z"/><path style="fill:#6BA0AB;" d="M331.834,266.441c1.006,0,1.664,0.808,1.462,1.789l-1.759,8.595"/><path style="fill:#6BA0AB;" d="M329.782,285.423l1.757-8.599l-1.758,8.601C329.781,285.423,329.782,285.423,329.782,285.423	L329.782,285.423z"/><path style="fill:#6BA0AB;" d="M327.577,287.23c0.003,0,0.006-0.002,0.008-0.002c-5.327,0.043-21.339,0.164-33.374,0.164	C308.857,287.393,327.576,287.23,327.577,287.23L327.577,287.23z"/><path style="fill:#6BA0AB;" d="M283.41,255.374c-0.016-0.94,1.057-2.562,2.062-2.562l-2.265-0.037	C282.191,263.021,283.41,255.374,283.41,255.374L283.41,255.374z"/><path style="fill:#6BA0AB;" d="M295.861,287.391c-0.115,0-0.234,0-0.353,0.002C295.627,287.391,295.746,287.391,295.861,287.391z"/><path style="fill:#6BA0AB;" d="M331.834,266.441c1.006,0,1.664,0.808,1.462,1.789l-1.759,8.595l-0.286,1.401"/><path style="fill:#6BA0AB;" d="M304.434,287.368h-0.073H304.434z"/><path style="fill:#6BA0AB;" d="M299.988,287.383h-0.261H299.988z"/><path style="fill:#6BA0AB;" d="M298.632,287.387c-0.146,0-0.286,0-0.427,0.004C298.346,287.387,298.486,287.387,298.632,287.387z"/><path style="fill:#6BA0AB;" d="M297.252,287.391h-0.374H297.252z"/><path style="fill:#6BA0AB;" d="M299.729,287.383c-0.366,0-0.73,0.002-1.097,0.002C298.994,287.385,299.361,287.383,299.729,287.383z	"/><path style="fill:#6BA0AB;" d="M304.361,287.368c-1.465,0.007-2.929,0.012-4.368,0.016	C301.434,287.381,302.898,287.375,304.361,287.368z"/><path style="fill:#6BA0AB;" d="M327.59,287.229L327.59,287.229c-3.904,0.03-13.547,0.104-23.163,0.144	C314.037,287.334,323.683,287.259,327.59,287.229z"/><path style="fill:#6BA0AB;" d="M329.782,285.426l1.473-7.199l-1.474,7.205C329.781,285.43,329.782,285.43,329.782,285.426	L329.782,285.426z"/><path style="fill:#6BA0AB;" d="M298.208,287.391h-0.956H298.208z"/><path style="fill:#6BA0AB;" d="M295.507,287.393h-1.292H295.507z"/><path style="fill:#6BA0AB;" d="M296.874,287.391h-1.019H296.874z"/><path style="fill:#6BA0AB;" d="M32.029,255.589l2.812-12.467l-3.215,14.252l-3.086,14.517l2.705-12.725	C31.452,258.18,31.807,256.57,32.029,255.589L32.029,255.589z"/><path style="fill:#6BA0AB;" d="M65.69,202.976H45.807c-1.006,0-2.009,0.803-2.233,1.782l-1.885,8.322l-1.885,8.325	c-0.222,0.979,0.418,1.782,1.425,1.782h20.038c1.004,0,2.003-0.803,2.219-1.785l1.822-8.322l1.822-8.316v-0.002	C67.343,203.779,66.697,202.976,65.69,202.976L65.69,202.976z"/><path style="fill:#6BA0AB;" d="M61.363,230.659v-0.002l-5.832,26.979L61.363,230.659z"/><path style="fill:#6BA0AB;" d="M3.601,320.053c0,0,10.023,0.129,16.395,0.129c-4.84,0-12.833-0.09-16.403-0.131	c0.004,0,0.006,0.002,0.01,0.002H3.601z"/><path style="fill:#6BA0AB;" d="M37.652,230.655l-2.815,12.467L37.652,230.655z"/><path style="fill:#6BA0AB;" d="M59.925,228.871H39.884c-1.005,0-2.009,0.803-2.231,1.785l-2.815,12.468l-2.812,12.468	c-0.222,0.98-0.576,2.592-0.784,3.574l-2.705,12.725l-2.703,12.729c-0.21,0.979-0.642,2.565-0.964,3.521	c0,0-3.743,11.14-10.038,11.012c-0.268-0.004-0.528-0.008-0.786-0.014c-3.049-0.06-5.446-0.103-5.446-0.103H8.596	c-1.003-0.017-2.012,0.771-2.247,1.743l-2.078,8.736l-2.076,8.731c-0.233,0.978,0.397,1.78,1.396,1.798	c3.569,0.044,11.563,0.137,16.403,0.137c15.722,0,24.009-8.715,29.322-33.777l6.218-28.771l5.832-26.979	C61.578,229.675,60.928,228.871,59.925,228.871L59.925,228.871z"/><path style="fill:#6BA0AB;" d="M344.604,286.372c-1.005,0-1.653-0.806-1.441-1.79l15.075-70.614"/><path style="fill:#6BA0AB;" d="M365.555,284.58l6.101-30.141L365.555,284.58z"/><path style="fill:#6BA0AB;" d="M343.377,285.479c-0.123-0.492-0.051-1.699,0.162-2.684l7.155-33.518l-7.537,35.305	c-0.212,0.984,0.438,1.792,1.439,1.792h1.831C345.427,286.374,343.498,285.971,343.377,285.479L343.377,285.479z"/><path style="fill:#6BA0AB;" d="M364.363,285.971c-0.547,0.221-1.818,0.401-2.825,0.401h1.831c1.005,0,1.992-0.806,2.188-1.792	l0.362-1.792C365.723,283.773,364.912,285.747,364.363,285.971L364.363,285.971z"/><path style="fill:#6BA0AB;" d="M368.607,269.51l2.688-13.302c-0.001,0.008-0.002,0.021-0.005,0.026L368.607,269.51L368.607,269.51z"	/><path style="fill:#6BA0AB;" d="M428.092,218.698l0.831,3.431c0.229,0.982-0.406,1.779-1.409,1.782"/><path style="fill:#6BA0AB;" d="M365.921,282.789l2.688-13.278L365.921,282.789z"/><path style="fill:#6BA0AB;" d="M427.266,215.184l0.822,3.515L427.266,215.184z"/><path style="fill:#6BA0AB;" d="M371.297,256.209c0.2-0.984,0.53-2.579,0.74-3.557l2.874-13.464l-3.257,15.253L371.297,256.209	L371.297,256.209z"/><path style="fill:#6BA0AB;" d="M358.48,212.811c-0.201,0.95-0.456,2.15-0.631,2.945l-7.149,33.521l7.537-35.308L358.48,212.811	L358.48,212.811z"/><path style="fill:#6BA0AB;" d="M428.917,222.129l-0.83-3.431l-0.822-3.515l-0.416-1.779c-1.628-6.324-6.402-9.974-16.777-9.974	l-16.153-0.018l-14.875-0.017H362.3c-1.005,0-2,0.803-2.207,1.788l0,0l-0.739,3.498l-0.871,4.13l-0.243,1.157l-7.537,35.308	l-7.154,33.518c-0.213,0.983-0.285,2.19-0.163,2.683c0.121,0.494,2.05,0.896,3.061,0.896h15.101c1.006,0,2.278-0.184,2.825-0.403	c0.548-0.223,1.356-2.196,1.559-3.183l2.688-13.278l2.687-13.274c0.001-0.006,0.002-0.018,0.005-0.022l0.358-1.771l3.256-15.25	l2.876-13.472c0.213-0.979,1.203-1.779,2.206-1.782l47.518-0.023C428.512,223.909,429.147,223.111,428.917,222.129L428.917,222.129z	"/><path style="fill:#6BA0AB;" d="M490.086,191.104c-1.006,0.007-2.65,0.013-3.656,0.013h-15.21c-1.005,0-2.293,0.68-2.856,1.51	l-33.63,49.269c-0.569,0.832-1.221,0.708-1.439-0.271l-2.475-10.855c-0.228-0.981-1.23-1.782-2.234-1.782h-21.62	c-1.007,0-1.604,0.789-1.328,1.756l9.688,33.938c0.272,0.967,0.296,2.56,0.047,3.528l-4.226,16.427	c-0.252,0.975,0.368,1.771,1.373,1.771h21.368c1.005,0,2.032-0.797,2.282-1.771l4.224-16.427c0.249-0.974,0.948-2.429,1.558-3.231	l54.599-72.46c0.605-0.803,0.277-1.457-0.727-1.45L490.086,191.104L490.086,191.104z"/><path style="fill:#6BA0AB;" d="M318.322,233.609l-0.002-0.021c-0.126,1.091-1.137,1.892-2.141,1.892h-27.406	c-0.948,0-1.435-0.645-1.291-1.439c0.008-0.023,0.013-0.043,0.022-0.063c0,0-0.009,0.002-0.021,0.009	c0.009-0.032,0.009-0.061,0.019-0.092c0,0,0.056-0.193,0.124-0.466c2.618-6.96,7.951-11.528,17.976-11.528	C316.886,221.899,319.089,227.411,318.322,233.609L318.322,233.609z M310.28,201.97c-35.185,0-43.521,21.356-48.198,42.911	c-4.68,21.971-4.275,42.512,32.133,42.512h1.292c0.115-0.002,0.233-0.002,0.349-0.002h2.353c0.145-0.004,0.279-0.004,0.426-0.004	c0.363,0,0.729-0.002,1.101-0.002h0.258c1.438-0.002,2.903-0.01,4.367-0.015h0.073c9.613-0.038,19.259-0.109,23.163-0.142	c0.998-0.019,1.979-0.82,2.185-1.797l1.474-7.205l0.287-1.4l1.758-8.594c0.203-0.983-0.455-1.791-1.461-1.791h-32.729	c-13.02,0-16.886-3.459-15.462-13.629h52.323l-0.005,0.006c0.013,0,0.024-0.006,0.036-0.006c0.831-0.019,1.6-0.588,1.905-1.354	c0.058-0.146,0.104-0.3,0.127-0.458l-0.006,0.006C345.791,221.706,343.561,201.971,310.28,201.97L310.28,201.97z"/><path style="fill:#6BA0AB;" d="M143.986,233.497l-0.495,1.753c0,0.006-0.001,0.006-0.001,0.006l-3.951,14.001l-3.949,13.999	c-0.273,0.967-1.318,1.76-2.326,1.76h-20.912c-15.862,0-19.724-12.406-15.862-30.706c3.861-18.716,11.434-30.352,27.045-31.529	C144.87,201.171,149.138,216.177,143.986,233.497L143.986,233.497z M158.328,263.938c0,0,9.859-23.938,12.098-37.767	c3.066-18.509-6.202-45.353-41.998-45.353c-35.594,0-51.049,25.629-56.947,53.49c-5.897,28.063,1.829,52.672,37.219,52.473	l27.918-0.104l26.094-0.096c1.005-0.008,2.032-0.806,2.289-1.776l4.545-17.338c0.253-0.973-0.362-1.773-1.366-1.777l-4.356-0.023	l-4.355-0.023c-0.854-0.009-1.344-0.561-1.24-1.293c0.019-0.135,0.049-0.27,0.106-0.408h-0.007V263.938L158.328,263.938z"/><path style="fill:#6BA0AB;" d="M334.521,247.916c0,0.662-0.537,1.201-1.2,1.201c-0.662,0-1.199-0.539-1.199-1.201	s0.537-1.197,1.199-1.197C333.984,246.718,334.521,247.253,334.521,247.916z"/></svg>